<svg width="40" height="40" viewBox="0 0 40 40" fill="none" xmlns="http://www.w3.org/2000/svg">
<rect width="40" height="40" rx="20" fill="white"/>
<path d="M20 9.25C20.1989 9.25 20.3897 9.32902 20.5303 9.46967C20.671 9.61032 20.75 9.80109 20.75 10V11C20.75 11.1989 20.671 11.3897 20.5303 11.5303C20.3897 11.671 20.1989 11.75 20 11.75C19.8011 11.75 19.6103 11.671 19.4697 11.5303C19.329 11.3897 19.25 11.1989 19.25 11V10C19.25 9.80109 19.329 9.61032 19.4697 9.46967C19.6103 9.32902 19.8011 9.25 20 9.25ZM20 14.25C18.475 14.25 17.0125 14.8558 15.9341 15.9341C14.8558 17.0125 14.25 18.475 14.25 20C14.25 21.525 14.8558 22.9875 15.9341 24.0659C17.0125 25.1442 18.475 25.75 20 25.75C21.525 25.75 22.9875 25.1442 24.0659 24.0659C25.1442 22.9875 25.75 21.525 25.75 20C25.75 18.475 25.1442 17.0125 24.0659 15.9341C22.9875 14.8558 21.525 14.25 20 14.25ZM13.46 12.399C13.3186 12.2623 13.1292 12.1866 12.9325 12.1882C12.7359 12.1899 12.5478 12.2686 12.4086 12.4076C12.2695 12.5466 12.1905 12.7347 12.1887 12.9313C12.1869 13.128 12.2624 13.3175 12.399 13.459L13.106 14.166C13.1747 14.2397 13.2575 14.2988 13.3495 14.3398C13.4415 14.3808 13.5408 14.4028 13.6415 14.4046C13.7422 14.4064 13.8422 14.3878 13.9356 14.3501C14.029 14.3124 14.1138 14.2563 14.185 14.185C14.2563 14.1138 14.3124 14.029 14.3501 13.9356C14.3878 13.8422 14.4064 13.7422 14.4046 13.6415C14.4028 13.5408 14.3808 13.4415 14.3398 13.3495C14.2988 13.2575 14.2397 13.1747 14.166 13.106L13.46 12.399ZM30.75 20C30.75 20.1989 30.671 20.3897 30.5303 20.5303C30.3897 20.671 30.1989 20.75 30 20.75H29C28.8011 20.75 28.6103 20.671 28.4697 20.5303C28.329 20.3897 28.25 20.1989 28.25 20C28.25 19.8011 28.329 19.6103 28.4697 19.4697C28.6103 19.329 28.8011 19.25 29 19.25H30C30.1989 19.25 30.3897 19.329 30.5303 19.4697C30.671 19.6103 30.75 19.8011 30.75 20ZM27.601 13.46C27.6727 13.3908 27.7298 13.3081 27.7692 13.2166C27.8085 13.1251 27.8293 13.0267 27.8302 12.9272C27.8311 12.8276 27.8122 12.7288 27.7745 12.6366C27.7368 12.5444 27.6812 12.4607 27.6108 12.3902C27.5404 12.3198 27.4567 12.264 27.3645 12.2263C27.2724 12.1885 27.1736 12.1695 27.0741 12.1703C26.9745 12.1711 26.876 12.1918 26.7845 12.231C26.693 12.2703 26.6102 12.3274 26.541 12.399L25.834 13.106C25.7603 13.1747 25.7012 13.2575 25.6602 13.3495C25.6192 13.4415 25.5972 13.5408 25.5954 13.6415C25.5936 13.7422 25.6122 13.8422 25.6499 13.9356C25.6876 14.029 25.7437 14.1138 25.815 14.185C25.8862 14.2563 25.971 14.3124 26.0644 14.3501C26.1578 14.3878 26.2578 14.4064 26.3585 14.4046C26.4592 14.4028 26.5585 14.3808 26.6505 14.3398C26.7425 14.2988 26.8253 14.2397 26.894 14.166L27.601 13.46ZM20 28.25C20.1989 28.25 20.3897 28.329 20.5303 28.4697C20.671 28.6103 20.75 28.8011 20.75 29V30C20.75 30.1989 20.671 30.3897 20.5303 30.5303C20.3897 30.671 20.1989 30.75 20 30.75C19.8011 30.75 19.6103 30.671 19.4697 30.5303C19.329 30.3897 19.25 30.1989 19.25 30V29C19.25 28.8011 19.329 28.6103 19.4697 28.4697C19.6103 28.329 19.8011 28.25 20 28.25ZM26.894 25.834C26.8253 25.7603 26.7425 25.7012 26.6505 25.6602C26.5585 25.6192 26.4592 25.5972 26.3585 25.5954C26.2578 25.5936 26.1578 25.6122 26.0644 25.6499C25.971 25.6876 25.8862 25.7437 25.815 25.815C25.7437 25.8862 25.6876 25.971 25.6499 26.0644C25.6122 26.1578 25.5936 26.2578 25.5954 26.3585C25.5972 26.4592 25.6192 26.5585 25.6602 26.6505C25.7012 26.7425 25.7603 26.8253 25.834 26.894L26.541 27.601C26.6097 27.6747 26.6925 27.7338 26.7845 27.7748C26.8765 27.8158 26.9758 27.8378 27.0765 27.8396C27.1772 27.8414 27.2772 27.8228 27.3706 27.7851C27.464 27.7474 27.5488 27.6913 27.62 27.62C27.6913 27.5488 27.7474 27.464 27.7851 27.3706C27.8228 27.2772 27.8414 27.1772 27.8396 27.0765C27.8378 26.9758 27.8158 26.8765 27.7748 26.7845C27.7338 26.6925 27.6747 26.6097 27.601 26.541L26.894 25.834ZM11.75 20C11.75 20.1989 11.671 20.3897 11.5303 20.5303C11.3897 20.671 11.1989 20.75 11 20.75H10C9.80109 20.75 9.61032 20.671 9.46967 20.5303C9.32902 20.3897 9.25 20.1989 9.25 20C9.25 19.8011 9.32902 19.6103 9.46967 19.4697C9.61032 19.329 9.80109 19.25 10 19.25H11C11.1989 19.25 11.3897 19.329 11.5303 19.4697C11.671 19.6103 11.75 19.8011 11.75 20ZM14.166 26.894C14.2985 26.7518 14.3706 26.5638 14.3672 26.3695C14.3637 26.1752 14.285 25.9898 14.1476 25.8524C14.0102 25.715 13.8248 25.6363 13.6305 25.6328C13.4362 25.6294 13.2482 25.7015 13.106 25.834L12.399 26.541C12.2665 26.6832 12.1944 26.8712 12.1978 27.0655C12.2013 27.2598 12.28 27.4452 12.4174 27.5826C12.5548 27.72 12.7402 27.7987 12.9345 27.8022C13.1288 27.8056 13.3168 27.7335 13.459 27.601L14.166 26.894Z" fill="currentColor"/>
</svg>
