<svg width="40" height="40" viewBox="0 0 40 40" fill="none" xmlns="http://www.w3.org/2000/svg">
<rect width="40" height="40" rx="20" fill="white"/>
<g clip-path="url(#clip0_1195_10740)">
<path d="M26.2426 22.03C26.4999 22.0945 26.721 22.2585 26.8573 22.4859C26.9937 22.7134 27.034 22.9857 26.9696 23.243L26.2796 26H26.9996V25C26.9996 24.7348 27.105 24.4804 27.2925 24.2929C27.48 24.1054 27.7344 24 27.9996 24C28.2648 24 28.5192 24.1054 28.7067 24.2929C28.8943 24.4804 28.9996 24.7348 28.9996 25V26C29.2648 26 29.5192 26.1054 29.7067 26.2929C29.8943 26.4804 29.9996 26.7348 29.9996 27C29.9996 27.2652 29.8943 27.5196 29.7067 27.7071C29.5192 27.8946 29.2648 28 28.9996 28V29C28.9996 29.2652 28.8943 29.5196 28.7067 29.7071C28.5192 29.8946 28.2648 30 27.9996 30C27.7344 30 27.48 29.8946 27.2925 29.7071C27.105 29.5196 26.9996 29.2652 26.9996 29V28H24.9996C24.8477 28 24.6978 27.9653 24.5613 27.8987C24.4248 27.8321 24.3053 27.7352 24.2118 27.6155C24.1183 27.4958 24.0533 27.3564 24.0217 27.2078C23.9901 27.0592 23.9928 26.9054 24.0296 26.758L25.0296 22.758C25.0939 22.5008 25.2576 22.2796 25.4849 22.1431C25.7122 22.0066 25.9854 21.9659 26.2426 22.03ZM21.4996 22C22.1343 21.9999 22.7453 22.2412 23.2087 22.675C23.672 23.1088 23.953 23.7026 23.9946 24.336L23.9996 24.5V24.825C23.9996 25.425 23.8096 26.006 23.4586 26.488L23.3186 26.663L22.1746 28H22.9996C23.2545 28.0003 23.4996 28.0979 23.685 28.2728C23.8703 28.4478 23.9818 28.687 23.9968 28.9414C24.0117 29.1958 23.9289 29.4464 23.7653 29.6418C23.6018 29.8373 23.3697 29.9629 23.1166 29.993L22.9996 30H19.9996C19.8192 30.0001 19.6422 29.9514 19.4873 29.8591C19.3323 29.7668 19.2052 29.6343 19.1194 29.4756C19.0337 29.317 18.9924 29.1381 19 28.9579C19.0076 28.7777 19.0638 28.6029 19.1626 28.452L19.2406 28.349L21.8006 25.362C21.9023 25.2427 21.9682 25.0971 21.9906 24.942L21.9996 24.825V24.5C21.9996 24.3674 21.9469 24.2402 21.8532 24.1464C21.7594 24.0527 21.6322 24 21.4996 24C21.367 24 21.2398 24.0527 21.1461 24.1464C21.0523 24.2402 20.9996 24.3674 20.9996 24.5C20.9996 24.7652 20.8942 25.0196 20.7067 25.2071C20.5192 25.3946 20.2648 25.5 19.9996 25.5C19.7344 25.5 19.48 25.3946 19.2925 25.2071C19.105 25.0196 18.9996 24.7652 18.9996 24.5C18.9996 23.837 19.263 23.2011 19.7318 22.7322C20.2007 22.2634 20.8366 22 21.4996 22ZM19.9996 11C24.1946 11 27.7166 13.87 28.7156 17.75C28.7819 18.0069 28.7435 18.2795 28.6087 18.5081C28.474 18.7366 28.254 18.9022 27.9971 18.9685C27.7402 19.0348 27.4676 18.9964 27.239 18.8616C27.0105 18.7269 26.8449 18.5069 26.7786 18.25C26.4897 17.1331 25.9292 16.105 25.1471 15.257C24.3649 14.409 23.3853 13.7675 22.2954 13.3895C21.2054 13.0115 20.039 12.9087 18.8997 13.0903C17.7605 13.2719 16.6838 13.7322 15.7654 14.4304C14.847 15.1285 14.1154 16.0428 13.6357 17.092C13.1559 18.1411 12.9429 19.2926 13.0156 20.4439C13.0882 21.5952 13.4443 22.7108 14.0521 23.6913C14.66 24.6718 15.5007 25.4868 16.4996 26.064C16.7173 26.2024 16.8731 26.4195 16.9344 26.67C16.9958 26.9205 16.958 27.1851 16.8289 27.4084C16.6998 27.6317 16.4895 27.7965 16.2418 27.8683C15.994 27.9402 15.7281 27.9136 15.4996 27.794C13.7839 26.8033 12.4431 25.2743 11.685 23.4439C10.9269 21.6136 10.7939 19.5842 11.3067 17.6706C11.8194 15.757 12.9493 14.066 14.521 12.8599C16.0927 11.6539 18.0185 11.0001 19.9996 11ZM19.9996 15C20.2445 15 20.4809 15.09 20.664 15.2527C20.847 15.4155 20.964 15.6397 20.9926 15.883L20.9996 16V20C20.9996 20.2449 20.9097 20.4813 20.7469 20.6644C20.5841 20.8474 20.3599 20.9643 20.1166 20.993L19.9996 21H17.9996C17.7447 20.9997 17.4996 20.9021 17.3142 20.7272C17.1289 20.5522 17.0174 20.313 17.0024 20.0586C16.9875 19.8042 17.0703 19.5536 17.2339 19.3582C17.3975 19.1627 17.6295 19.0371 17.8826 19.007L17.9996 19H18.9996V16C18.9996 15.7348 19.105 15.4804 19.2925 15.2929C19.48 15.1054 19.7344 15 19.9996 15Z" fill="currentColor"/>
</g>
<defs>
<clipPath id="clip0_1195_10740">
<rect width="24" height="24" fill="white" transform="translate(8 8)"/>
</clipPath>
</defs>
</svg>
