<svg width="40" height="40" viewBox="0 0 40 40" fill="none" xmlns="http://www.w3.org/2000/svg">
<rect width="40" height="40" rx="20" fill="white"/>
<path d="M25.7503 12.09L23.2203 14.03L24.1303 17.09L21.5003 15.28L18.8703 17.09L19.7803 14.03L17.2503 12.09L20.4403 12L21.5003 9L22.5603 12L25.7503 12.09ZM29.2503 19L27.6103 20.25L28.2003 22.23L26.5003 21.06L24.8003 22.23L25.3903 20.25L23.7503 19L25.8103 18.95L26.5003 17L27.1903 18.95L29.2503 19ZM26.9703 23.95C27.8003 23.87 28.6903 25.05 28.1603 25.8C27.8403 26.25 27.5003 26.67 27.0803 27.07C23.1703 31 16.8403 31 12.9403 27.07C9.03031 23.17 9.03031 16.83 12.9403 12.93C13.3403 12.53 13.7603 12.17 14.2103 11.85C14.9603 11.32 16.1403 12.21 16.0603 13.04C15.7903 15.9 16.7503 18.87 18.9503 21.06C19.9899 22.1052 21.2486 22.9066 22.6355 23.4064C24.0224 23.9062 25.5029 24.0918 26.9703 23.95ZM25.3303 25.97C22.3946 25.8012 19.6213 24.5675 17.5303 22.5C15.3603 20.31 14.2003 17.5 14.0403 14.68C11.2303 17.82 11.3403 22.64 14.3503 25.66C17.3703 28.67 22.1903 28.78 25.3303 25.97Z" fill="currentColor"/>
</svg>
