<svg width="40" height="40" viewBox="0 0 40 40" fill="none" xmlns="http://www.w3.org/2000/svg">
<rect width="40" height="40" rx="20" fill="white"/>
<path d="M9.36914 20.62C9.36914 20.38 9.44914 20.18 9.61914 20.01C9.79914 19.84 9.99914 19.76 10.2191 19.76H12.2591C12.4891 19.76 12.6791 19.84 12.8391 20.01C12.9891 20.18 13.0691 20.38 13.0691 20.62C13.0691 20.86 12.9891 21.06 12.8391 21.22C12.6891 21.39 12.4891 21.47 12.2591 21.47H10.2291C9.99914 21.47 9.79914 21.39 9.62914 21.22C9.54725 21.143 9.48195 21.05 9.43724 20.9468C9.39253 20.8437 9.36936 20.7324 9.36914 20.62ZM12.2291 13.71C12.2291 13.48 12.3091 13.28 12.4591 13.1C12.6591 12.93 12.8691 12.85 13.0991 12.85C13.3091 12.85 13.5091 12.93 13.6891 13.1L15.1191 14.56C15.2791 14.71 15.3591 14.91 15.3591 15.15C15.3591 15.39 15.2791 15.59 15.1191 15.75C14.9591 15.91 14.7591 15.99 14.5191 15.99C14.2791 15.99 14.0791 15.91 13.9291 15.75L12.4691 14.32C12.3909 14.2392 12.3294 14.1437 12.2882 14.039C12.247 13.9343 12.2269 13.8225 12.2291 13.71ZM12.3891 23.02C12.3891 22.8 12.4691 22.61 12.6191 22.47C12.7791 22.33 12.9891 22.25 13.2591 22.25H18.9691C19.2391 22.25 19.4491 22.32 19.6091 22.47C19.7691 22.61 19.8491 22.8 19.8491 23.02C19.8491 23.29 19.7691 23.5 19.6191 23.66C19.4591 23.82 19.2491 23.9 18.9691 23.9H13.2591C12.9891 23.9 12.7791 23.82 12.6191 23.67C12.4591 23.52 12.3891 23.29 12.3891 23.02ZM13.3791 25.97C13.3791 25.75 13.4691 25.55 13.6591 25.37C13.7378 25.286 13.8326 25.2189 13.938 25.1727C14.0433 25.1265 14.157 25.1022 14.272 25.1013C14.387 25.1004 14.501 25.1228 14.6071 25.1673C14.7132 25.2117 14.8092 25.2773 14.8891 25.36C15.0491 25.54 15.1291 25.74 15.1291 25.97C15.1291 26.25 15.0491 26.46 14.8991 26.62C14.7491 26.78 14.5291 26.85 14.2591 26.85C14.0323 26.8526 13.8134 26.7665 13.6491 26.61C13.5603 26.5294 13.49 26.4304 13.4434 26.3198C13.3968 26.2093 13.3748 26.0899 13.3791 25.97ZM14.7891 20.91V20.84C14.8191 19.58 15.2591 18.49 16.0991 17.56C16.9391 16.63 17.9691 16.07 19.1991 15.87H19.2491C19.4391 15.83 19.6991 15.81 20.0091 15.81C20.3191 15.81 20.5791 15.83 20.7691 15.87H20.8091C22.0291 16.06 23.0691 16.63 23.9091 17.56C24.7491 18.49 25.1891 19.58 25.2191 20.84V20.91C25.2191 21.07 25.1391 21.15 24.9891 21.15H23.8591C23.7391 21.15 23.6591 21.12 23.6091 21.06C23.5647 21.0105 23.5399 20.9465 23.5391 20.88C23.4991 19.95 23.1391 19.16 22.4591 18.51C21.7791 17.86 20.9691 17.54 20.0191 17.54C19.0691 17.54 18.2591 17.86 17.5791 18.51C16.8991 19.16 16.5391 19.95 16.4991 20.88C16.4991 20.94 16.4691 21 16.4191 21.06C16.3691 21.12 16.2791 21.15 16.1591 21.15H15.0291C14.8691 21.15 14.7891 21.07 14.7891 20.91ZM15.7991 25.97C15.7991 25.74 15.8791 25.54 16.0391 25.36C16.1991 25.19 16.4091 25.1 16.6691 25.1H20.4991C20.7191 25.1 20.9191 25.19 21.0991 25.37C21.2791 25.55 21.3791 25.75 21.3791 25.97C21.3791 26.23 21.2891 26.45 21.1091 26.61C20.9291 26.77 20.7291 26.85 20.4991 26.85H16.6691C16.3991 26.85 16.1891 26.77 16.0291 26.62C15.8691 26.46 15.7991 26.25 15.7991 25.97ZM19.1391 12.89V10.86C19.1391 10.62 19.2191 10.42 19.3891 10.25C19.5591 10.08 19.7591 10 19.9991 10C20.2391 10 20.4291 10.08 20.5991 10.25C20.7691 10.42 20.8491 10.62 20.8491 10.86V12.89C20.8491 13.12 20.7691 13.32 20.5991 13.47C20.4291 13.62 20.2291 13.71 19.9991 13.71C19.7691 13.71 19.5591 13.63 19.3991 13.48C19.2391 13.33 19.1391 13.12 19.1391 12.89ZM20.4991 23.02C20.4991 22.81 20.5891 22.63 20.7691 22.48C20.9491 22.33 21.1491 22.25 21.3791 22.25C21.6091 22.25 21.8091 22.33 21.9891 22.48C22.1691 22.63 22.2591 22.81 22.2591 23.02C22.2591 23.28 22.1691 23.5 21.9891 23.66C21.8091 23.82 21.6091 23.9 21.3791 23.9C21.1491 23.9 20.9391 23.82 20.7691 23.66C20.681 23.5788 20.6113 23.4797 20.5647 23.3693C20.5181 23.2589 20.4958 23.1398 20.4991 23.02ZM22.0391 25.97C22.0391 25.74 22.1191 25.54 22.2791 25.36C22.4391 25.19 22.6591 25.1 22.9191 25.1H24.7791C25.0391 25.1 25.2491 25.19 25.4091 25.36C25.5691 25.54 25.6491 25.74 25.6491 25.97C25.6491 26.25 25.5691 26.46 25.4191 26.62C25.2691 26.78 25.0491 26.85 24.7791 26.85H22.9191C22.6491 26.85 22.4391 26.77 22.2791 26.62C22.1191 26.46 22.0391 26.25 22.0391 25.97ZM22.9191 23.02C22.9191 22.81 23.0091 22.63 23.1891 22.48C23.3691 22.33 23.5691 22.25 23.7891 22.25H26.8591C27.0791 22.25 27.2591 22.32 27.3991 22.47C27.5391 22.62 27.6191 22.8 27.6191 23.02C27.6191 23.29 27.5491 23.5 27.4091 23.66C27.2691 23.82 27.0891 23.9 26.8591 23.9H23.7891C23.5591 23.9 23.3591 23.82 23.1791 23.66C23.0943 23.5768 23.0274 23.4771 22.9826 23.367C22.9379 23.2569 22.9163 23.1388 22.9191 23.02ZM24.6591 15.15C24.6591 14.9 24.7391 14.7 24.8891 14.56L26.3091 13.1C26.4891 12.93 26.6891 12.85 26.8991 12.85C27.1291 12.85 27.3291 12.93 27.4991 13.1C27.6691 13.27 27.7491 13.47 27.7491 13.71C27.7491 13.95 27.6691 14.16 27.5091 14.32L26.0491 15.74C25.8691 15.9 25.6691 15.98 25.4491 15.98C25.2191 15.98 25.0391 15.9 24.8891 15.74C24.813 15.6622 24.7534 15.5699 24.7139 15.4685C24.6743 15.3671 24.6557 15.2588 24.6591 15.15ZM26.9191 20.62C26.9191 20.39 26.9991 20.19 27.1591 20.01C27.3291 19.84 27.5191 19.76 27.7291 19.76H29.7491C29.9791 19.76 30.1791 19.85 30.3491 20.02C30.5191 20.19 30.6091 20.39 30.6091 20.62C30.6091 20.85 30.5191 21.05 30.3491 21.22C30.1791 21.39 29.9791 21.47 29.7491 21.47H27.7291C27.4991 21.47 27.2991 21.39 27.1491 21.22C26.9991 21.05 26.9191 20.86 26.9191 20.62Z" fill="currentColor"/>
</svg>
